<?xml version="1.0" encoding="UTF-8" standalone="no"?>
<svg
   class="svglite"
   width="83.931313pt"
   height="96.748848pt"
   viewBox="0 0 83.931309 96.748848"
   version="1.1"
   id="svg37"
   sodipodi:docname="funkyheatmap_edited.svg"
   inkscape:version="1.4 (e7c3feb100, 2024-10-09)"
   inkscape:export-filename="funkyheatmap_edited.png"
   inkscape:export-xdpi="96"
   inkscape:export-ydpi="96"
   xmlns:inkscape="http://www.inkscape.org/namespaces/inkscape"
   xmlns:sodipodi="http://sodipodi.sourceforge.net/DTD/sodipodi-0.dtd"
   xmlns="http://www.w3.org/2000/svg"
   xmlns:svg="http://www.w3.org/2000/svg">
  <sodipodi:namedview
     id="namedview37"
     pagecolor="#ffffff"
     bordercolor="#000000"
     borderopacity="0.25"
     inkscape:showpageshadow="2"
     inkscape:pageopacity="0.0"
     inkscape:pagecheckerboard="0"
     inkscape:deskcolor="#d1d1d1"
     inkscape:document-units="pt"
     inkscape:zoom="5.1863113"
     inkscape:cx="9.4479482"
     inkscape:cy="108.94063"
     inkscape:window-width="3840"
     inkscape:window-height="2091"
     inkscape:window-x="0"
     inkscape:window-y="32"
     inkscape:window-maximized="1"
     inkscape:current-layer="svg37" />
  <defs
     id="defs1">
    <style
       type="text/css"
       id="style1"><![CDATA[
    .svglite line, .svglite polyline, .svglite polygon, .svglite path, .svglite rect, .svglite circle {
      fill: none;
      stroke: #000000;
      stroke-linecap: round;
      stroke-linejoin: round;
      stroke-miterlimit: 10.00;
    }
    .svglite text {
      white-space: pre;
    }
  ]]></style>
    <clipPath
       clipPathUnits="userSpaceOnUse"
       id="clipPath38">
      <polygon
         points="1.74,109.41 25.66,150.84 73.5,150.84 97.42,109.41 73.5,67.98 25.66,67.98 "
         style="fill:#ffffff;fill-opacity:1;stroke:none;stroke-width:1.07;stroke-linecap:butt"
         id="polygon39" />
    </clipPath>
  </defs>
  <defs
     id="defs2">
    <clipPath
       id="cpMC4wMHwxMjkuNjB8MC4wMHwxNTcuNTA=">
      <rect
         x="0"
         y="0"
         width="129.60001"
         height="157.5"
         id="rect2" />
    </clipPath>
  </defs>
  <defs
     id="defs3">
    <clipPath
       id="cpMC4wMHwxMjkuNjB8Mi40M3wxNTUuMDc=">
      <rect
         x="0"
         y="2.4300001"
         width="129.60001"
         height="152.64999"
         id="rect3" />
    </clipPath>
  </defs>
  <g
     id="g38"
     clip-path="url(#clipPath38)"
     transform="rotate(-30,-68.121107,93.100773)">
    <rect
       x="77.410004"
       y="64.18"
       width="17.4"
       height="17.4"
       style="fill:#f14432;stroke-width:0.53;stroke-linecap:butt;stroke-linejoin:miter"
       id="rect11" />
    <rect
       x="77.410004"
       y="82.449997"
       width="17.4"
       height="17.4"
       style="fill:#fb7a5a;stroke-width:0.53;stroke-linecap:butt;stroke-linejoin:miter"
       id="rect12" />
    <rect
       x="77.410004"
       y="118.98"
       width="17.4"
       height="17.4"
       style="fill:#fdd8c8;stroke-width:0.53;stroke-linecap:butt;stroke-linejoin:miter"
       id="rect14" />
    <rect
       x="77.410004"
       y="137.24001"
       width="17.4"
       height="17.4"
       style="fill:#fff5f0;stroke-width:0.53;stroke-linecap:butt;stroke-linejoin:miter"
       id="rect15" />
    <polygon
       points="19.22,77.52 19.88,76.47 20.37,75.32 20.67,74.12 20.77,72.88 20.77,72.88 20.77,72.88 20.77,72.88 20.67,71.64 20.37,70.43 19.88,69.29 19.22,68.24 18.39,67.31 17.43,66.53 16.36,65.9 15.19,65.46 13.98,65.22 13.05,65.16 13.05,65.16 13.98,65.22 12.74,65.17 11.5,65.32 10.31,65.66 9.19,66.19 8.16,66.9 7.27,67.76 6.52,68.75 5.95,69.85 5.55,71.03 5.35,72.26 5.33,72.88 5.33,72.88 5.35,72.26 5.35,73.5 5.55,74.73 5.95,75.9 6.52,77 7.27,78 8.16,78.86 9.19,79.56 10.31,80.1 11.5,80.44 12.74,80.59 13.05,80.6 12.74,80.59 13.98,80.54 15.19,80.29 16.36,79.85 17.43,79.23 18.39,78.45 "
       style="fill:#b9b9b9;stroke-width:0.53;stroke-linecap:butt;stroke-linejoin:miter"
       id="polygon15" />
    <polygon
       points="16.09,93.43 16.42,92.91 16.66,92.35 16.8,91.76 16.85,91.14 16.85,91.14 16.85,91.14 16.85,91.14 16.8,90.53 16.66,89.94 16.42,89.38 16.09,88.86 15.68,88.4 15.21,88.01 14.68,87.71 14.11,87.49 13.51,87.37 13.05,87.34 13.05,87.34 13.51,87.37 12.89,87.34 12.29,87.42 11.7,87.59 11.14,87.85 10.64,88.2 10.2,88.62 9.83,89.11 9.55,89.65 9.35,90.23 9.25,90.84 9.24,91.14 9.24,91.14 9.25,90.84 9.25,91.45 9.35,92.06 9.55,92.64 9.83,93.18 10.2,93.67 10.64,94.09 11.14,94.44 11.7,94.7 12.29,94.87 12.89,94.95 13.05,94.95 12.89,94.95 13.51,94.92 14.11,94.8 14.68,94.58 15.21,94.28 15.68,93.89 "
       style="fill:#555555;stroke-width:0.53;stroke-linecap:butt;stroke-linejoin:miter"
       id="polygon16" />
    <polygon
       points="15.31,129.37 15.55,128.99 15.73,128.57 15.84,128.13 15.87,127.68 15.87,127.68 15.87,127.68 15.87,127.68 15.84,127.22 15.73,126.78 15.55,126.36 15.31,125.98 15.01,125.64 14.65,125.35 14.26,125.12 13.83,124.96 13.39,124.87 13.05,124.85 13.05,124.85 13.39,124.87 12.93,124.85 12.48,124.91 12.04,125.03 11.63,125.23 11.26,125.49 10.93,125.8 10.66,126.17 10.45,126.57 10.3,127 10.23,127.45 10.22,127.68 10.22,127.68 10.23,127.45 10.23,127.9 10.3,128.35 10.45,128.78 10.66,129.19 10.93,129.55 11.26,129.87 11.63,130.12 12.04,130.32 12.48,130.45 12.93,130.5 13.05,130.5 12.93,130.5 13.39,130.48 13.83,130.39 14.26,130.23 14.65,130 15.01,129.71 "
       style="fill:#373737;stroke-width:0.53;stroke-linecap:butt;stroke-linejoin:miter"
       id="polygon17" />
    <polygon
       points="21.4,153.95 21.55,153.71 21.66,153.45 21.72,153.18 21.74,152.9 21.74,152.9 21.74,138.98 21.74,138.98 21.72,138.7 21.66,138.43 21.55,138.18 21.4,137.94 21.21,137.73 20.99,137.55 20.75,137.41 20.49,137.31 20.22,137.26 20.01,137.24 6.09,137.24 6.3,137.26 6.02,137.25 5.74,137.28 5.47,137.36 5.22,137.48 4.99,137.64 4.79,137.83 4.62,138.05 4.49,138.3 4.4,138.57 4.35,138.84 4.35,138.98 4.35,152.9 4.35,152.76 4.35,153.04 4.4,153.32 4.49,153.58 4.62,153.83 4.79,154.05 4.99,154.25 5.22,154.41 5.47,154.53 5.74,154.6 6.02,154.64 6.09,154.64 20.01,154.64 19.94,154.64 20.22,154.63 20.49,154.57 20.75,154.47 20.99,154.33 21.21,154.15 "
       style="fill:#f0f0f0;stroke-width:0.53;stroke-linecap:butt;stroke-linejoin:miter"
       id="polygon18" />
    <polygon
       points="38.27,78.1 39.01,76.92 39.56,75.63 39.9,74.27 40.01,72.88 40.01,72.88 40.01,72.88 40.01,72.88 39.9,71.48 39.56,70.12 39.01,68.84 38.27,67.65 37.34,66.61 36.25,65.72 35.04,65.02 33.73,64.52 32.36,64.24 31.31,64.18 31.31,64.18 32.36,64.24 30.96,64.19 29.57,64.36 28.23,64.75 26.96,65.35 25.81,66.14 24.8,67.11 23.96,68.23 23.31,69.47 22.87,70.8 22.64,72.18 22.61,72.88 22.61,72.88 22.64,72.18 22.64,73.58 22.87,74.96 23.31,76.29 23.96,77.53 24.8,78.65 25.81,79.62 26.96,80.41 28.23,81.01 29.57,81.4 30.96,81.57 31.31,81.58 30.96,81.57 32.36,81.51 33.73,81.23 35.04,80.74 36.25,80.04 37.34,79.15 "
       style="fill:#b0dfa9;stroke-width:0.53;stroke-linecap:butt;stroke-linejoin:miter"
       id="polygon19" />
    <polygon
       points="39.66,99.15 39.81,98.91 39.92,98.65 39.99,98.38 40.01,98.1 40.01,98.1 40.01,84.19 40.01,84.19 39.99,83.91 39.92,83.64 39.81,83.38 39.66,83.14 39.48,82.93 39.26,82.75 39.02,82.61 38.76,82.52 38.48,82.46 38.27,82.45 24.35,82.45 24.56,82.46 24.28,82.45 24.01,82.48 23.74,82.56 23.48,82.68 23.25,82.84 23.05,83.03 22.88,83.26 22.75,83.5 22.67,83.77 22.62,84.05 22.61,84.19 22.61,98.1 22.62,97.96 22.62,98.24 22.67,98.52 22.75,98.78 22.88,99.03 23.05,99.26 23.25,99.45 23.48,99.61 23.74,99.73 24.01,99.81 24.28,99.84 24.35,99.84 38.27,99.84 38.2,99.84 38.48,99.83 38.76,99.77 39.02,99.67 39.26,99.53 39.48,99.36 "
       style="fill:#e5f5e0;stroke-width:0.53;stroke-linecap:butt;stroke-linejoin:miter"
       id="polygon20" />
    <polygon
       points="35.92,131.14 36.42,130.35 36.78,129.5 37,128.6 37.08,127.68 37.08,127.68 37.08,127.68 37.08,127.68 37,126.75 36.78,125.85 36.42,125 35.92,124.21 35.3,123.52 34.59,122.93 33.78,122.47 32.92,122.14 32.01,121.96 31.31,121.91 31.31,121.91 32.01,121.96 31.08,121.92 30.16,122.03 29.27,122.29 28.43,122.69 27.67,123.21 27,123.85 26.44,124.6 26.01,125.42 25.72,126.3 25.57,127.21 25.55,127.68 25.55,127.68 25.57,127.21 25.57,128.14 25.72,129.06 26.01,129.93 26.44,130.76 27,131.5 27.67,132.14 28.43,132.67 29.27,133.06 30.16,133.32 31.08,133.43 31.31,133.44 31.08,133.43 32.01,133.4 32.92,133.21 33.78,132.88 34.59,132.42 35.3,131.83 "
       style="fill:#41ab5d;stroke-width:0.53;stroke-linecap:butt;stroke-linejoin:miter"
       id="polygon21" />
    <polygon
       points="33.57,147.64 33.82,147.26 33.99,146.84 34.1,146.4 34.14,145.94 34.14,145.94 34.14,145.94 34.14,145.94 34.1,145.49 33.99,145.05 33.82,144.63 33.57,144.24 33.27,143.9 32.92,143.62 32.52,143.39 32.1,143.23 31.65,143.14 31.31,143.12 31.31,143.12 31.65,143.14 31.2,143.12 30.75,143.17 30.31,143.3 29.9,143.49 29.52,143.75 29.2,144.07 28.92,144.43 28.71,144.83 28.57,145.27 28.5,145.71 28.49,145.94 28.49,145.94 28.5,145.71 28.5,146.17 28.57,146.62 28.71,147.05 28.92,147.45 29.2,147.82 29.52,148.13 29.9,148.39 30.31,148.59 30.75,148.71 31.2,148.77 31.31,148.77 31.2,148.77 31.65,148.75 32.1,148.66 32.52,148.5 32.92,148.27 33.27,147.98 "
       style="fill:#005c25;stroke-width:0.53;stroke-linecap:butt;stroke-linejoin:miter"
       id="polygon22" />
    <polygon
       points="54.97,76.93 55.55,76.01 55.97,75.01 56.23,73.96 56.32,72.88 56.32,72.88 56.32,72.88 56.32,72.88 56.23,71.8 55.97,70.74 55.55,69.75 54.97,68.83 54.25,68.02 53.41,67.33 52.47,66.79 51.45,66.4 50.39,66.19 49.58,66.14 49.58,66.14 50.39,66.19 49.31,66.14 48.23,66.27 47.19,66.58 46.21,67.04 45.32,67.66 44.53,68.41 43.88,69.28 43.38,70.24 43.03,71.27 42.86,72.34 42.84,72.88 42.84,72.88 42.86,72.34 42.86,73.42 43.03,74.49 43.38,75.52 43.88,76.48 44.53,77.35 45.32,78.1 46.21,78.72 47.19,79.18 48.23,79.48 49.31,79.61 49.58,79.62 49.31,79.61 50.39,79.57 51.45,79.35 52.47,78.97 53.41,78.43 54.25,77.74 "
       style="fill:#7fb9da;stroke-width:0.53;stroke-linecap:butt;stroke-linejoin:miter"
       id="polygon23" />
    <polygon
       points="56.53,96.37 57.28,95.19 57.83,93.9 58.16,92.54 58.28,91.14 58.28,91.14 58.28,91.14 58.28,91.14 58.16,89.75 57.83,88.39 57.28,87.1 56.53,85.92 55.6,84.87 54.52,83.99 53.31,83.29 52,82.79 50.63,82.51 49.58,82.45 49.58,82.45 50.63,82.51 49.23,82.45 47.84,82.62 46.49,83.01 45.23,83.61 44.08,84.41 43.07,85.38 42.23,86.5 41.58,87.74 41.13,89.06 40.91,90.44 40.88,91.14 40.88,91.14 40.91,90.44 40.91,91.84 41.13,93.23 41.58,94.55 42.23,95.79 43.07,96.91 44.08,97.88 45.23,98.68 46.49,99.28 47.84,99.67 49.23,99.84 49.58,99.84 49.23,99.84 50.63,99.78 52,99.5 53.31,99 54.52,98.3 55.6,97.42 "
       style="fill:#cadef0;stroke-width:0.53;stroke-linecap:butt;stroke-linejoin:miter"
       id="polygon24" />
    <polygon
       points="55.36,132.02 55.98,131.04 56.44,129.97 56.72,128.84 56.81,127.68 56.81,127.68 56.81,127.68 56.81,127.68 56.72,126.52 56.44,125.39 55.98,124.32 55.36,123.33 54.59,122.46 53.69,121.73 52.68,121.14 51.59,120.73 50.45,120.5 49.58,120.45 49.58,120.45 50.45,120.5 49.29,120.45 48.13,120.59 47.01,120.92 45.96,121.41 45.01,122.08 44.17,122.88 43.47,123.81 42.93,124.84 42.56,125.95 42.37,127.09 42.35,127.68 42.35,127.68 42.37,127.09 42.37,128.26 42.56,129.41 42.93,130.51 43.47,131.54 44.17,132.47 45.01,133.28 45.96,133.94 47.01,134.44 48.13,134.76 49.29,134.9 49.58,134.91 49.29,134.9 50.45,134.85 51.59,134.62 52.68,134.21 53.69,133.63 54.59,132.89 "
       style="fill:#96c5df;stroke-width:0.53;stroke-linecap:butt;stroke-linejoin:miter"
       id="polygon25" />
    <polygon
       points="53.79,149.11 54.25,148.39 54.58,147.61 54.78,146.79 54.85,145.94 54.85,145.94 54.85,145.94 54.85,145.94 54.78,145.1 54.58,144.27 54.25,143.49 53.79,142.77 53.23,142.14 52.57,141.6 51.84,141.18 51.05,140.88 50.21,140.71 49.58,140.67 49.58,140.67 50.21,140.71 49.37,140.67 48.52,140.78 47.71,141.01 46.94,141.38 46.24,141.86 45.63,142.45 45.12,143.12 44.73,143.88 44.46,144.68 44.32,145.52 44.31,145.94 44.31,145.94 44.32,145.52 44.32,146.37 44.46,147.2 44.73,148.01 45.12,148.76 45.63,149.44 46.24,150.03 46.94,150.51 47.71,150.87 48.52,151.11 49.37,151.21 49.58,151.22 49.37,151.21 50.21,151.18 51.05,151.01 51.84,150.71 52.57,150.28 53.23,149.74 "
       style="fill:#4493c6;stroke-width:0.53;stroke-linecap:butt;stroke-linejoin:miter"
       id="polygon26" />
    <polygon
       points="76.19,80.88 76.34,80.65 76.45,80.39 76.52,80.12 76.54,79.84 76.54,79.84 76.54,65.92 76.54,65.92 76.52,65.64 76.45,65.37 76.34,65.11 76.19,64.88 76.01,64.67 75.79,64.49 75.55,64.35 75.29,64.25 75.01,64.19 74.8,64.18 60.89,64.18 61.1,64.19 60.82,64.18 60.54,64.22 60.27,64.29 60.02,64.41 59.79,64.57 59.58,64.77 59.42,64.99 59.29,65.24 59.2,65.5 59.15,65.78 59.15,65.92 59.15,79.84 59.15,79.7 59.15,79.98 59.2,80.25 59.29,80.52 59.42,80.77 59.58,80.99 59.79,81.18 60.02,81.34 60.27,81.46 60.54,81.54 60.82,81.58 60.89,81.58 74.8,81.58 74.73,81.58 75.01,81.56 75.29,81.51 75.55,81.41 75.79,81.27 76.01,81.09 "
       style="fill:#ffffe5;stroke-width:0.53;stroke-linecap:butt;stroke-linejoin:miter"
       id="polygon27" />
    <polygon
       points="74.8,96.37 75.55,95.19 76.09,93.9 76.43,92.54 76.54,91.14 76.54,91.14 76.54,91.14 76.54,91.14 76.43,89.75 76.09,88.39 75.55,87.1 74.8,85.92 73.87,84.87 72.79,83.99 71.57,83.29 70.26,82.79 68.89,82.51 67.84,82.45 67.84,82.45 68.89,82.51 67.49,82.45 66.1,82.62 64.76,83.01 63.5,83.61 62.34,84.41 61.33,85.38 60.49,86.5 59.84,87.74 59.4,89.06 59.17,90.44 59.15,91.14 59.15,91.14 59.17,90.44 59.17,91.84 59.4,93.23 59.84,94.55 60.49,95.79 61.33,96.91 62.34,97.88 63.5,98.68 64.76,99.28 66.1,99.67 67.49,99.84 67.84,99.84 67.49,99.84 68.89,99.78 70.26,99.5 71.57,99 72.79,98.3 73.87,97.42 "
       style="fill:#fff7bc;stroke-width:0.53;stroke-linecap:butt;stroke-linejoin:miter"
       id="polygon28" />
    <polygon
       points="76.19,135.68 76.34,135.44 76.45,135.19 76.52,134.91 76.54,134.63 76.54,134.63 76.54,120.72 76.54,120.72 76.52,120.44 76.45,120.17 76.34,119.91 76.19,119.67 76.01,119.46 75.79,119.29 75.55,119.15 75.29,119.05 75.01,118.99 74.8,118.98 60.89,118.98 61.1,118.99 60.82,118.98 60.54,119.01 60.27,119.09 60.02,119.21 59.79,119.37 59.58,119.56 59.42,119.79 59.29,120.04 59.2,120.3 59.15,120.58 59.15,120.72 59.15,134.63 59.15,134.49 59.15,134.77 59.2,135.05 59.29,135.32 59.42,135.56 59.58,135.79 59.79,135.98 60.02,136.14 60.27,136.26 60.54,136.34 60.82,136.37 60.89,136.37 74.8,136.37 74.73,136.37 75.01,136.36 75.29,136.31 75.55,136.21 75.79,136.07 76.01,135.89 "
       style="fill:#ffffe5;stroke-width:0.53;stroke-linecap:butt;stroke-linejoin:miter"
       id="polygon29" />
    <polygon
       points="74.41,150.87 75.11,149.76 75.63,148.54 75.95,147.26 76.05,145.94 76.05,145.94 76.05,145.94 76.05,145.94 75.95,144.63 75.63,143.34 75.11,142.13 74.41,141.01 73.53,140.02 72.51,139.19 71.36,138.53 70.13,138.06 68.83,137.79 67.84,137.73 67.84,137.73 68.83,137.79 67.51,137.74 66.2,137.9 64.93,138.27 63.74,138.83 62.65,139.58 61.7,140.5 60.91,141.55 60.29,142.72 59.87,143.98 59.66,145.28 59.64,145.94 59.64,145.94 59.66,145.28 59.66,146.6 59.87,147.91 60.29,149.16 60.91,150.33 61.7,151.39 62.65,152.3 63.74,153.05 64.93,153.62 66.2,153.98 67.51,154.14 67.84,154.15 67.51,154.14 68.83,154.09 70.13,153.83 71.36,153.36 72.51,152.7 73.53,151.86 "
       style="fill:#fef2b1;stroke-width:0.53;stroke-linecap:butt;stroke-linejoin:miter"
       id="polygon30" />
    <text
       x="49.580002"
       y="113.47"
       text-anchor="middle"
       style="font-style:normal;font-variant:normal;font-weight:bold;font-stretch:normal;font-size:11.38px;font-family:Arial;-inkscape-font-specification:'Arial Bold'"
       textLength="77.779999"
       lengthAdjust="spacingAndGlyphs"
       id="text30">funkyheatmap</text>
  </g>
  <polygon
     points="25.66,67.98 1.74,109.41 25.66,150.84 73.5,150.84 97.42,109.41 73.5,67.98 "
     style="stroke-width:1.07;stroke-linecap:butt"
     id="polygon36"
     transform="rotate(-30,-68.121107,93.100773)" />
</svg>
